<svg xmlns="http://www.w3.org/2000/svg" xmlns:xlink="http://www.w3.org/1999/xlink" width="220" zoomAndPan="magnify" viewBox="0 0 165 165.000002" height="220" preserveAspectRatio="xMidYMid meet" version="1.0"><defs><g/></defs><g fill="#1d1e40" fill-opacity="0.4"><g transform="translate(7.772123, 118.635433)"><g><path d="M 72.375 -19.015625 L 72.375 0 L 15.46875 0 L 15.46875 -74.75 L 19.4375 -74.75 L 19.4375 -19.015625 Z M 72.375 -19.015625 "/></g></g></g><g fill="#1d1e40" fill-opacity="0.4"><g transform="translate(87.235698, 118.635433)"><g><path d="M 74.953125 0 L 4.515625 0 L 39.734375 -76.359375 Z M 10.734375 -3.96875 L 68.734375 -3.96875 L 39.734375 -66.90625 Z M 10.734375 -3.96875 "/></g></g></g><g fill="#1d1e40" fill-opacity="1"><g transform="translate(3.026029, 113.88934)"><g><path d="M 72.375 -19.015625 L 72.375 0 L 15.46875 0 L 15.46875 -74.75 L 19.4375 -74.75 L 19.4375 -19.015625 Z M 72.375 -19.015625 "/></g></g></g><g fill="#1d1e40" fill-opacity="1"><g transform="translate(82.489604, 113.88934)"><g><path d="M 74.953125 0 L 4.515625 0 L 39.734375 -76.359375 Z M 10.734375 -3.96875 L 68.734375 -3.96875 L 39.734375 -66.90625 Z M 10.734375 -3.96875 "/></g></g></g></svg>