<svg xmlns="http://www.w3.org/2000/svg" version="1.1" xmlns:xlink="http://www.w3.org/1999/xlink" width="512" height="512" x="0" y="0" viewBox="0 0 64 64" style="enable-background:new 0 0 512 512" xml:space="preserve" class=""><g><path fill="#fb8500" d="M50.889 22.302a1.5 1.5 0 1 1-2.121-2.12L60.873 8.075a16.414 16.414 0 0 0-8.787-6.77L45.94 7.453a1.5 1.5 0 0 1-2.122-2.121L48.575.576a16.494 16.494 0 0 0-16.891 22.547l8.598-8.599a1.5 1.5 0 0 1 2.121 2.122l-9.275 9.275a16.396 16.396 0 0 0 8.786 6.77l5.44-5.439a1.5 1.5 0 0 1 2.12 2.121l-4.048 4.05A16.5 16.5 0 0 0 62.32 10.87z" opacity="1" data-original="#3e3ef4" class=""></path><path d="M26.208 17.458a2.512 2.512 0 0 0 .239-3.359A14.56 14.56 0 0 0 12.26 8.751 14.501 14.501 0 0 0 4.483 32.98l-.844 5.06A5.502 5.502 0 0 0 .5 43v19A1.5 1.5 0 0 0 2 63.5h24a1.5 1.5 0 0 0 1.5-1.5V43a5.502 5.502 0 0 0-3.14-4.96l-.6-3.61c.869-.272 2.174-1.828 2.757-2.612a2.502 2.502 0 0 0-.29-3.317 12.526 12.526 0 0 0-.02-11.042zm-7.754 5.999a2.263 2.263 0 0 0 0-.916l5.222-3.398a9.43 9.43 0 0 1 0 7.712zm2.275 11.042.5 3H6.771l.5-3zm-5.229 17h-6v-2a3 3 0 0 1 6 0zm-6 9v-6h6v6zm15-16H22a1.5 1.5 0 1 0 0 3h2.5v5H22a1.5 1.5 0 1 0 0 3h2.5v5h-6v-11a6 6 0 1 0-12 0v11h-3v-17.5a2.503 2.503 0 0 1 2.5-2.5h16a2.503 2.503 0 0 1 2.5 2.5zm-1.7-13H7.25a11.501 11.501 0 1 1 16.49-15.971l-6.92 4.497a3.492 3.492 0 0 0-.32-.175V16a1.5 1.5 0 1 0-3 0v3.851a3.49 3.49 0 1 0 3.32 6.123l6.946 4.495A8.373 8.373 0 0 1 22.8 31.5zM62.147 53.006c-.198-.02-4.855-.58-6.185-6.344a1.502 1.502 0 0 0-2.924 0c-1.327 5.752-5.968 6.321-6.183 6.344a1.502 1.502 0 0 0-.001 2.986c.197.02 4.854.58 6.184 6.344a1.502 1.502 0 0 0 2.924 0c1.33-5.764 5.987-6.323 6.174-6.343a1.502 1.502 0 0 0 .01-2.987zM54.5 57.934a10.236 10.236 0 0 0-3.321-3.435 10.235 10.235 0 0 0 3.321-3.435 10.235 10.235 0 0 0 3.321 3.435 10.235 10.235 0 0 0-3.32 3.435zM45.149 41.007c-.166-.019-4.069-.497-5.187-5.345a1.502 1.502 0 0 0-2.924 0c-1.115 4.835-5 5.324-5.185 5.344a1.502 1.502 0 0 0-.001 2.985c.165.019 4.068.497 5.186 5.345a1.502 1.502 0 0 0 2.924 0c1.118-4.848 5.02-5.326 5.174-5.343a1.502 1.502 0 0 0 .013-2.986zM38.5 45.095a9.039 9.039 0 0 0-2.515-2.596 9.039 9.039 0 0 0 2.515-2.596 9.039 9.039 0 0 0 2.516 2.596 9.039 9.039 0 0 0-2.516 2.596z" fill="#1d1e40" opacity="1" data-original="#000000" class=""></path><circle cx="58" cy="38.145" r="2" fill="#1d1e40" opacity="1" data-original="#000000" class=""></circle><circle cx="34" cy="56.145" r="2" fill="#1d1e40" opacity="1" data-original="#000000" class=""></circle></g></svg>