<svg xmlns="http://www.w3.org/2000/svg" version="1.1" xmlns:xlink="http://www.w3.org/1999/xlink" width="512" height="512" x="0" y="0" viewBox="0 0 64 64" style="enable-background:new 0 0 512 512" xml:space="preserve" class=""><g><path d="M35.957 3.32A11.806 11.806 0 0 1 42.1 13.363a1.5 1.5 0 0 0 2.999-.083A14.806 14.806 0 0 0 37.384.681a1.5 1.5 0 1 0-1.427 2.64z" fill="#1d1e40" opacity="1" data-original="#000000" class=""></path><path d="M33.57 7.727a6.768 6.768 0 0 1 3.54 5.78 1.5 1.5 0 1 0 3-.073 9.771 9.771 0 0 0-5.139-8.36 1.5 1.5 0 1 0-1.402 2.653zM62 52.5H51.37a9.437 9.437 0 0 0-1.444-3.725 11.012 11.012 0 0 0 7.52-3.235h.001l.905-.905a1.5 1.5 0 0 0 0-2.121l-2.657-2.657 1.518-5.034a4.483 4.483 0 0 0 2.969-7.66 4.504 4.504 0 0 0-6.364 0 4.453 4.453 0 0 0-1.282 2.815l-5.302 1.419-2.457-2.457a1.5 1.5 0 0 0-2.121 0l-.905.905a11.08 11.08 0 0 0-.855 14.725 9.509 9.509 0 0 0-8.266 7.93h-4.579l-2.337-8.882a1.5 1.5 0 0 0-2.901.764l.294 1.118H7.894l.557-2.118a1.5 1.5 0 0 0-2.901-.764l-5 19a1.5 1.5 0 0 0 2.901.764l.495-1.882h23.108l.496 1.882A1.5 1.5 0 0 0 29 63.5h33a1.5 1.5 0 0 0 1.5-1.5v-8a1.5 1.5 0 0 0-1.5-1.5zm-6.06-23.217a1.5 1.5 0 1 1 2.12 2.122 1.535 1.535 0 0 1-2.12 0 1.507 1.507 0 0 1 0-2.122zm-2.65 3.6a3.909 3.909 0 0 0 1.051 1.073l-1.054 3.494-3.603-3.603zm-9.572-.759 11.45 11.449a8.099 8.099 0 0 1-11.45-11.449zM42 47.5a6.507 6.507 0 0 1 6.318 5H35.682a6.506 6.506 0 0 1 6.318-5zM6.918 49.21l5.215 2.845-7.02 4.01zm4.964-.709h6.47l-3.16 1.806zm-3.233 9 6.578-3.759 6.891 3.76zm9.637-5.507 5.676-3.243 1.948 7.402zM60.5 60.5H30.157l-1.316-5H60.5zM51.7 4.6a2.503 2.503 0 0 1 .5 3.5 1.5 1.5 0 0 0 2.4 1.801 2.504 2.504 0 0 1 3.5-.5A1.5 1.5 0 1 0 59.9 7a5.493 5.493 0 0 0-4.237-1.017A5.487 5.487 0 0 0 53.5 2.2a1.5 1.5 0 1 0-1.801 2.4zM51.037 19.14a2.498 2.498 0 0 1 3.142 1.622 1.5 1.5 0 0 0 2.858-.912 2.498 2.498 0 0 1 1.622-3.141 1.5 1.5 0 1 0-.912-2.859 5.484 5.484 0 0 0-3.284 2.861 5.47 5.47 0 0 0-4.338-.429 1.5 1.5 0 1 0 .912 2.859z" fill="#1d1e40" opacity="1" data-original="#000000" class=""></path><path fill="#1d1e40" d="m36.06 31.492-6.497-6.497 1.305-6.511a4.783 4.783 0 0 0 2.838-1.357 4.838 4.838 0 0 0 0-6.832 4.837 4.837 0 0 0-6.832 0 4.782 4.782 0 0 0-1.357 2.838l-6.51 1.305-6.498-6.498a1.545 1.545 0 0 0-2.122 0l-1.57 1.57a18.115 18.115 0 0 0-3.462 20.806 5.908 5.908 0 0 0 8.33 8.33 18.114 18.114 0 0 0 20.805-3.463l1.57-1.57a1.5 1.5 0 0 0 0-2.12zm-22.293.863a1.5 1.5 0 0 1-2.12 0 14.158 14.158 0 0 1-1.309-18.514 1.5 1.5 0 0 1 2.395 1.807 11.16 11.16 0 0 0 1.034 14.586 1.5 1.5 0 0 1 0 2.12zm7.788-15.369 4.547-.91a4.322 4.322 0 0 0 1.823 1.823l-.91 4.547z" opacity="1" data-original="#3e3ef4" class=""></path></g></svg>