<svg xmlns="http://www.w3.org/2000/svg" version="1.1" xmlns:xlink="http://www.w3.org/1999/xlink" width="512" height="512" x="0" y="0" viewBox="0 0 64 64" style="enable-background:new 0 0 512 512" xml:space="preserve" class=""><g><path d="M62.417 20.477a6.486 6.486 0 0 0-9.236 8.399 14.56 14.56 0 0 0 9.236-8.399Z" style="" fill="#fb8500" data-original="#3e3ef4" class="" opacity="1"></path><path d="M49.5 25.996a9.481 9.481 0 0 1 13.765-8.476A14.403 14.403 0 0 0 52.911 1.04 1.5 1.5 0 0 0 51.068 2.9a11.501 11.501 0 0 1-14.165 14.165 1.5 1.5 0 0 0-1.858 1.844 14.484 14.484 0 0 0 15.11 10.53 9.435 9.435 0 0 1-.655-3.442Z" style="" fill="#fb8500" data-original="#3e3ef4" class="" opacity="1"></path><path d="M7.674 17.386 5.15 25.554a1.501 1.501 0 0 0 2.344 1.634L14 22.218l6.506 4.97a1.501 1.501 0 0 0 2.344-1.634l-2.524-8.168 6.585-5.03A1.501 1.501 0 0 0 26 9.662h-8.06l-2.507-8.11a1.501 1.501 0 0 0-2.866 0l-2.506 8.11H2a1.501 1.501 0 0 0-.91 2.692Zm3.493-4.723a1.5 1.5 0 0 0 1.433-1.057l1.4-4.53 1.4 4.53a1.5 1.5 0 0 0 1.433 1.057h4.733l-3.893 2.975a1.5 1.5 0 0 0-.523 1.634l1.448 4.683-3.687-2.816a1.5 1.5 0 0 0-1.822 0l-3.687 2.816 1.448-4.683a1.5 1.5 0 0 0-.523-1.634l-3.893-2.975ZM62 45.663h-8.06l-2.507-8.11a1.502 1.502 0 0 0-2.866 0l-2.506 8.11H38a1.502 1.502 0 0 0-.91 2.693l6.584 5.03-2.524 8.167a1.502 1.502 0 0 0 2.344 1.636L50 58.219l6.506 4.97a1.502 1.502 0 0 0 2.344-1.636l-2.524-8.167 6.585-5.03A1.502 1.502 0 0 0 62 45.663Zm-8.327 5.974a1.502 1.502 0 0 0-.523 1.636l1.448 4.682-3.687-2.817a1.502 1.502 0 0 0-1.822 0l-3.687 2.817 1.448-4.682a1.502 1.502 0 0 0-.523-1.636l-3.893-2.974h4.733a1.5 1.5 0 0 0 1.433-1.056l1.4-4.53 1.4 4.53a1.5 1.5 0 0 0 1.433 1.056h4.733ZM29.5 48.996a14.5 14.5 0 1 0-14.5 14.5 14.527 14.527 0 0 0 14.5-14.5Zm-3 0a11.497 11.497 0 0 1-.109 1.495 7.995 7.995 0 0 1-6.789-12.026A11.512 11.512 0 0 1 26.5 48.996ZM3.627 50.613a8.494 8.494 0 0 1 9.756 9.756 11.507 11.507 0 0 1-9.756-9.756Zm12.78 9.788A11.489 11.489 0 0 0 3.594 47.59a11.396 11.396 0 0 1 13.049-9.962A10.998 10.998 0 0 0 25.6 53.45a11.525 11.525 0 0 1-9.195 6.95ZM39.5 33.996a5.5 5.5 0 1 0-5.5 5.5 5.506 5.506 0 0 0 5.5-5.5Zm-5.5 2.5a2.5 2.5 0 1 1 2.5-2.5 2.503 2.503 0 0 1-2.5 2.5ZM32.43 8.384a7.687 7.687 0 0 1 4.183 4.184 1.501 1.501 0 0 0 2.774 0 7.687 7.687 0 0 1 4.184-4.185 1.501 1.501 0 0 0 0-2.774 7.687 7.687 0 0 1-4.184-4.184 1.501 1.501 0 0 0-2.774 0 7.687 7.687 0 0 1-4.184 4.185 1.501 1.501 0 0 0 0 2.774Zm5.57-3.4a10.812 10.812 0 0 0 2.012 2.012A10.812 10.812 0 0 0 38 9.008a10.812 10.812 0 0 0-2.012-2.012A10.812 10.812 0 0 0 38 4.985Z" fill="#1d1e40" opacity="1" data-original="#000000" class=""></path></g></svg>