<svg xmlns="http://www.w3.org/2000/svg" version="1.1" xmlns:xlink="http://www.w3.org/1999/xlink" width="512" height="512" x="0" y="0" viewBox="0 0 64 64" style="enable-background:new 0 0 512 512" xml:space="preserve" class=""><g><path fill="#fb8500" d="m47.92 18.822-8.516-6.625a7.226 7.226 0 0 0 .096-1.107 8.08 8.08 0 0 0-1.516-4.73L34.84 1.969h-.001a3.49 3.49 0 0 0-5.679 0L26.017 6.36a8.074 8.074 0 0 0-1.517 4.73 7.326 7.326 0 0 0 .094 1.109l-8.515 6.623a1.5 1.5 0 0 0-.42 1.854l1 2a1.5 1.5 0 0 0 1.635.8l9.056-1.811 1.531 5.132-5.355 1.785A1.5 1.5 0 0 0 24 31.505h6.285l.277.929a1.501 1.501 0 0 0 2.875 0l.277-.929H40a1.5 1.5 0 0 0 .475-2.923l-5.357-1.785 1.53-5.133 9.058 1.812a1.5 1.5 0 0 0 1.636-.8l1-2a1.5 1.5 0 0 0-.421-1.854zM36.155 9.963a1.5 1.5 0 0 1-2.112.197 2.759 2.759 0 0 0-4.084 0 1.5 1.5 0 1 1-1.916-2.309 5.723 5.723 0 0 1 7.916 0 1.5 1.5 0 0 1 .196 2.112z" opacity="1" data-original="#3e3ef4" class=""></path><path d="M60 15.505h-5.5v-6.5a3.504 3.504 0 0 0-3.5-3.5h-8a1.5 1.5 0 1 0 0 3h8a.501.501 0 0 1 .5.5v40a.501.501 0 0 1-.5.5H33.5v-11.5a1.5 1.5 0 0 0-3 0v11.5H13a.5.5 0 0 1-.5-.5v-40a.5.5 0 0 1 .5-.5h8a1.5 1.5 0 0 0 0-3h-8a3.504 3.504 0 0 0-3.5 3.5v6.5H4a3.504 3.504 0 0 0-3.5 3.5v37a3.504 3.504 0 0 0 3.5 3.5h22.708a5.505 5.505 0 0 0 10.584 0H60a3.504 3.504 0 0 0 3.5-3.5v-37a3.504 3.504 0 0 0-3.5-3.5zm.5 40.5a.501.501 0 0 1-.5.5H36a1.5 1.5 0 0 0-1.5 1.5c0 3.31-5 3.303-5 0a1.5 1.5 0 0 0-1.5-1.5H4a.5.5 0 0 1-.5-.5v-37a.5.5 0 0 1 .5-.5h5.5v30.5a3.504 3.504 0 0 0 3.5 3.5h38a3.504 3.504 0 0 0 3.5-3.5v-30.5H60a.501.501 0 0 1 .5.5z" fill="#1d1e40" opacity="1" data-original="#000000" class=""></path><path d="M38 38.505h9a1.5 1.5 0 0 0 0-3h-9a1.5 1.5 0 0 0 0 3zM38 45.505h9a1.5 1.5 0 0 0 0-3h-9a1.5 1.5 0 0 0 0 3zM15.5 37.005a1.5 1.5 0 0 0 1.5 1.5h9a1.5 1.5 0 0 0 0-3h-9a1.5 1.5 0 0 0-1.5 1.5zM26 42.505h-9a1.5 1.5 0 0 0 0 3h9a1.5 1.5 0 0 0 0-3z" fill="#1d1e40" opacity="1" data-original="#000000" class=""></path></g></svg>