<svg width="64" height="64" xmlns="http://www.w3.org/2000/svg" xml:space="preserve" version="1.1">

 <g>
  <title>Layer 1</title>
  <g id="svg_1">
   <path id="svg_2" data-original="#3e3ef4" d="m50.889,22.302c-0.707,-0.70667 -1.414,-1.41333 -2.121,-2.12l12.105,-12.107a16.414,16.414 0 0 0 -8.787,-6.77l-6.146,6.148a1.5,1.5 0 0 1 -2.122,-2.121l4.757,-4.756a16.494,16.494 0 0 0 -16.891,22.547l8.598,-8.599a1.5,1.5 0 0 1 2.121,2.122l-9.275,9.275a16.396,16.396 0 0 0 8.786,6.77l5.44,-5.439a1.5,1.5 0 0 1 2.12,2.121l-4.048,4.05a16.5,16.5 0 0 0 16.894,-22.553l-11.431,11.432z" fill="#ffb703"/>
   <path id="svg_3" data-original="#000000" fill="#ffb703" d="m26.208,17.458a2.512,2.512 0 0 0 0.239,-3.359a14.56,14.56 0 0 0 -14.187,-5.348a14.501,14.501 0 0 0 -7.777,24.229l-0.844,5.06a5.502,5.502 0 0 0 -3.139,4.96l0,19a1.5,1.5 0 0 0 1.5,1.5l24,0a1.5,1.5 0 0 0 1.5,-1.5l0,-19a5.502,5.502 0 0 0 -3.14,-4.96l-0.6,-3.61c0.869,-0.272 2.174,-1.828 2.757,-2.612a2.502,2.502 0 0 0 -0.29,-3.317a12.526,12.526 0 0 0 -0.02,-11.042l0.001,-0.001zm-7.754,5.999a2.263,2.263 0 0 0 0,-0.916l5.222,-3.398a9.43,9.43 0 0 1 0,7.712l-5.222,-3.398zm2.275,11.042l0.5,3l-14.458,0l0.5,-3l13.458,0zm-5.229,17l-6,0l0,-2a3,3 0 0 1 6,0l0,2zm-6,9l0,-6l6,0l0,6l-6,0zm15,-16l-2.5,0a1.5,1.5 0 1 0 0,3l2.5,0l0,5l-2.5,0a1.5,1.5 0 1 0 0,3l2.5,0l0,5l-6,0l0,-11a6,6 0 1 0 -12,0l0,11l-3,0l0,-17.5a2.503,2.503 0 0 1 2.5,-2.5l16,0a2.503,2.503 0 0 1 2.5,2.5l0,1.5zm-1.7,-13l-15.55,0a11.501,11.501 0 1 1 16.49,-15.971l-6.92,4.497a3.492,3.492 0 0 0 -0.32,-0.175l0,-3.85a1.5,1.5 0 1 0 -3,0l0,3.851a3.49,3.49 0 1 0 3.32,6.123l6.946,4.495a8.373,8.373 0 0 1 -0.966,1.031l0,-0.001zm39.347,21.507c-0.198,-0.02 -4.855,-0.58 -6.185,-6.344a1.502,1.502 0 0 0 -2.924,0c-1.327,5.752 -5.968,6.321 -6.183,6.344a1.502,1.502 0 0 0 -0.001,2.986c0.197,0.02 4.854,0.58 6.184,6.344a1.502,1.502 0 0 0 2.924,0c1.33,-5.764 5.987,-6.323 6.174,-6.343a1.502,1.502 0 0 0 0.01,-2.987l0.001,0zm-7.647,4.928a10.236,10.236 0 0 0 -3.321,-3.435a10.235,10.235 0 0 0 3.321,-3.435a10.235,10.235 0 0 0 3.321,3.435a10.235,10.235 0 0 0 -3.32,3.435l-0.001,0zm-9.351,-16.927c-0.166,-0.019 -4.069,-0.497 -5.187,-5.345a1.502,1.502 0 0 0 -2.924,0c-1.115,4.835 -5,5.324 -5.185,5.344a1.502,1.502 0 0 0 -0.001,2.985c0.165,0.019 4.068,0.497 5.186,5.345a1.502,1.502 0 0 0 2.924,0c1.118,-4.848 5.02,-5.326 5.174,-5.343a1.502,1.502 0 0 0 0.013,-2.986zm-6.649,4.088a9.039,9.039 0 0 0 -2.515,-2.596a9.039,9.039 0 0 0 2.515,-2.596a9.039,9.039 0 0 0 2.516,2.596a9.039,9.039 0 0 0 -2.516,2.596z"/>
   <circle id="svg_4" data-original="#000000" fill="#ffb703" r="2" cy="38.145" cx="58"/>
   <circle id="svg_5" data-original="#000000" fill="#ffb703" r="2" cy="56.145" cx="34"/>
  </g>
 </g>
</svg>