<svg width="64" height="64" xmlns="http://www.w3.org/2000/svg" xml:space="preserve" version="1.1">

 <g>
  <title>Layer 1</title>
  <g id="svg_1">
   <path id="svg_2" data-original="#000000" fill="#ffb703" d="m35.957,3.32a11.806,11.806 0 0 1 6.143,10.043a1.5,1.5 0 0 0 2.999,-0.083a14.806,14.806 0 0 0 -7.715,-12.599a1.5,1.5 0 1 0 -1.427,2.64l0,-0.001z"/>
   <path id="svg_3" data-original="#000000" fill="#ffb703" d="m33.57,7.727a6.768,6.768 0 0 1 3.54,5.78a1.5,1.5 0 1 0 3,-0.073a9.771,9.771 0 0 0 -5.139,-8.36a1.5,1.5 0 1 0 -1.402,2.653l0.001,0zm28.43,44.773l-10.63,0a9.437,9.437 0 0 0 -1.444,-3.725a11.012,11.012 0 0 0 7.52,-3.235l0.001,0l0.905,-0.905a1.5,1.5 0 0 0 0,-2.121l-2.657,-2.657l1.518,-5.034a4.483,4.483 0 0 0 2.969,-7.66a4.504,4.504 0 0 0 -6.364,0a4.453,4.453 0 0 0 -1.282,2.815l-5.302,1.419l-2.457,-2.457a1.5,1.5 0 0 0 -2.121,0l-0.905,0.905a11.08,11.08 0 0 0 -0.855,14.725a9.509,9.509 0 0 0 -8.266,7.93l-4.579,0l-2.337,-8.882a1.5,1.5 0 0 0 -2.901,0.764l0.294,1.118l-15.213,0l0.557,-2.118a1.5,1.5 0 0 0 -2.901,-0.764l-5,19a1.5,1.5 0 0 0 2.901,0.764l0.495,-1.882l23.108,0l0.496,1.882a1.5,1.5 0 0 0 1.45,1.118l33,0a1.5,1.5 0 0 0 1.5,-1.5l0,-8a1.5,1.5 0 0 0 -1.5,-1.5zm-6.06,-23.217a1.5,1.5 0 1 1 2.12,2.122a1.535,1.535 0 0 1 -2.12,0a1.507,1.507 0 0 1 0,-2.122zm-2.65,3.6a3.909,3.909 0 0 0 1.051,1.073l-1.054,3.494l-3.603,-3.603l3.606,-0.964zm-9.572,-0.759l11.45,11.449a8.099,8.099 0 0 1 -11.45,-11.449zm-1.718,15.376a6.507,6.507 0 0 1 6.318,5l-12.636,0a6.506,6.506 0 0 1 6.318,-5zm-35.082,1.71l5.215,2.845l-7.02,4.01l1.805,-6.855zm4.964,-0.709l6.47,0l-3.16,1.806l-3.31,-1.806zm-3.233,9l6.578,-3.759l6.891,3.76l-13.469,-0.001zm9.637,-5.507l5.676,-3.243l1.948,7.402l-7.624,-4.159zm42.214,8.506l-30.343,0l-1.316,-5l31.659,0l0,5zm-8.8,-55.9a2.503,2.503 0 0 1 0.5,3.5a1.5,1.5 0 0 0 2.4,1.801a2.504,2.504 0 0 1 3.5,-0.5a1.5,1.5 0 1 0 1.8,-2.401a5.493,5.493 0 0 0 -4.237,-1.017a5.487,5.487 0 0 0 -2.163,-3.783a1.5,1.5 0 1 0 -1.801,2.4l0.001,0zm-0.663,14.54a2.498,2.498 0 0 1 3.142,1.622a1.5,1.5 0 0 0 2.858,-0.912a2.498,2.498 0 0 1 1.622,-3.141a1.5,1.5 0 1 0 -0.912,-2.859a5.484,5.484 0 0 0 -3.284,2.861a5.47,5.47 0 0 0 -4.338,-0.429a1.5,1.5 0 1 0 0.912,2.859l0,-0.001z"/>
   <path id="svg_4" data-original="#3e3ef4" d="m36.06,31.492l-6.497,-6.497l1.305,-6.511a4.783,4.783 0 0 0 2.838,-1.357a4.838,4.838 0 0 0 0,-6.832a4.837,4.837 0 0 0 -6.832,0a4.782,4.782 0 0 0 -1.357,2.838l-6.51,1.305l-6.498,-6.498a1.545,1.545 0 0 0 -2.122,0l-1.57,1.57a18.115,18.115 0 0 0 -3.462,20.806a5.908,5.908 0 0 0 8.33,8.33a18.114,18.114 0 0 0 20.805,-3.463l1.57,-1.57a1.5,1.5 0 0 0 0,-2.12l0,-0.001zm-22.293,0.863a1.5,1.5 0 0 1 -2.12,0a14.158,14.158 0 0 1 -1.309,-18.514a1.5,1.5 0 0 1 2.395,1.807a11.16,11.16 0 0 0 1.034,14.586a1.5,1.5 0 0 1 0,2.12l0,0.001zm7.788,-15.369l4.547,-0.91a4.322,4.322 0 0 0 1.823,1.823l-0.91,4.547l-5.46,-5.46z" fill="#ffb703"/>
  </g>
 </g>
</svg>