<svg xmlns="http://www.w3.org/2000/svg" version="1.1" xmlns:xlink="http://www.w3.org/1999/xlink" width="512" height="512" x="0" y="0" viewBox="0 0 64 64" style="enable-background:new 0 0 512 512" xml:space="preserve" class=""><g><path d="M59.49 32.947a1.5 1.5 0 0 0-2.999.106 26.465 26.465 0 0 1-.135 3.766 42.434 42.434 0 0 0-18.545-2.951 20.237 20.237 0 0 1-4.529.072c-2.428-.39-3.76-1.947-3.027-4.36a9.756 9.756 0 0 1 1.638-2.908 1.5 1.5 0 1 0-2.394-1.808 12.663 12.663 0 0 0-2.114 3.843c-1.242 4.082 1.093 7.498 5.421 8.195a22.034 22.034 0 0 0 5.207-.041 39.445 39.445 0 0 1 17.837 2.986q-.159.7-.354 1.385c-2.634-.736-5.456-.243-8.143.433-2.444.62-5.206 1.405-7.59.854-3.92-.908-4.593-3.432-14.782-.689-6.13 1.65-7.393 1.468-11.791.217-2.714-.77-5.669-1.559-8.645-.724a26.44 26.44 0 0 1 .549-16.352 10.05 10.05 0 0 0 5.858.06 53.628 53.628 0 0 0 5.748-2.172 27.194 27.194 0 0 1 12.19-1.66 1.5 1.5 0 0 0 .282-2.987 30.153 30.153 0 0 0-13.542 1.844 55.483 55.483 0 0 1-5.433 2.071 7.355 7.355 0 0 1-3.903.065A26.675 26.675 0 0 1 16.853 11.01a12.924 12.924 0 0 0 7.875 1.499c1.133-.099 2.923-.287 3.685.647a1.5 1.5 0 1 0 2.324-1.896c-1.533-1.88-3.865-1.946-6.267-1.74a10.17 10.17 0 0 1-3.97-.25 26.376 26.376 0 0 1 10.455-1.753 1.5 1.5 0 0 0 .105-2.998 29.5 29.5 0 1 0 28.43 28.428ZM12.368 44.933c4.977 1.415 6.761 1.579 13.392-.206 9.26-2.491 8.849-.321 13.327.714 3.02.698 6.035-.117 8.996-.867 2.068-.519 4.397-1.006 6.43-.5a26.548 26.548 0 0 1-4.641 7.438c-.028.002-.056 0-.084.004a37.86 37.86 0 0 1-13.858-.466 18.42 18.42 0 0 0-8.984-.37c-5.424.82-5.313.069-10.695-1.02a11.988 11.988 0 0 0-7.28.43 26.503 26.503 0 0 1-3.436-5.93c2.236-.548 4.752.18 6.833.773Zm-1.285 7.593a10.482 10.482 0 0 1 4.574.074c5.588 1.13 5.812 1.942 11.737 1.046a15.597 15.597 0 0 1 7.866.329 35.657 35.657 0 0 0 11.06.886 26.43 26.43 0 0 1-35.237-2.335Z" fill="#ffb703" opacity="1" data-original="#000000" class=""></path><path d="M10.508 33a5.5 5.5 0 1 0 5.5-5.5 5.506 5.506 0 0 0-5.5 5.5Zm8 0a2.5 2.5 0 1 1-2.5-2.5 2.503 2.503 0 0 1 2.5 2.5Z" fill="#ffb703" opacity="1" data-original="#000000" class=""></path><path d="M59.49 19.353a5.785 5.785 0 0 1-10.82-2.983 7.78 7.78 0 0 0-2.047.445c-2.985.908-4.107.75-7.03-.377a13.49 13.49 0 0 0-2.068-.679 5.921 5.921 0 0 0-4.962 1.335 15.4 15.4 0 0 0 2.578 7.538 21.676 21.676 0 0 1 11.652-1.262c2.517.428 4.615 1.212 6.945 1.646a37.04 37.04 0 0 0 6.504.466 15.429 15.429 0 0 0 2.864-6.026 18.583 18.583 0 0 1-3.617-.103ZM40.675 13.64c2.544.982 2.999.935 5.076.305a8.804 8.804 0 0 1 3.819-.544 5.784 5.784 0 0 1 10.673 3.022 19.035 19.035 0 0 0 3.243.005 15.255 15.255 0 0 0-3.018-9.608l-8.84 1.123a18.526 18.526 0 0 1-7.098-.038 17.336 17.336 0 0 1-6.48-3.767 15.488 15.488 0 0 0-5.316 9.327c2.97-1.349 5.265-.859 7.94.175Z" style="" fill="#80ddf2" data-original="#3e3ef4" class="" opacity="1"></path><path d="M45.284 5.001a16.158 16.158 0 0 0 5.966-.034l6.692-.85a15.462 15.462 0 0 0-17.307-1.748A13.203 13.203 0 0 0 45.285 5Z" style="" fill="#80ddf2" data-original="#3e3ef4" class="" opacity="1"></path><circle cx="54.455" cy="16.5" r="2.792" style="" fill="#80ddf2" data-original="#3e3ef4" class="" opacity="1"></circle><path d="M53.19 27.965c-2.318-.43-4.713-1.266-6.9-1.637a18.624 18.624 0 0 0-9.098.754 15.418 15.418 0 0 0 20.06 1.33 30.447 30.447 0 0 1-4.063-.447Z" style="" fill="#80ddf2" data-original="#3e3ef4" class="" opacity="1"></path></g></svg>