<svg width="64" height="64" xmlns="http://www.w3.org/2000/svg" xml:space="preserve" version="1.1">

 <g>
  <title>Layer 1</title>
  <g id="svg_1">
   <path id="svg_2" data-original="#000000" fill="#ffb703" d="m59.49,32.947a1.5,1.5 0 0 0 -2.999,0.106a26.465,26.465 0 0 1 -0.135,3.766a42.434,42.434 0 0 0 -18.545,-2.951a20.237,20.237 0 0 1 -4.529,0.072c-2.428,-0.39 -3.76,-1.947 -3.027,-4.36a9.756,9.756 0 0 1 1.638,-2.908a1.5,1.5 0 1 0 -2.394,-1.808a12.663,12.663 0 0 0 -2.114,3.843c-1.242,4.082 1.093,7.498 5.421,8.195a22.034,22.034 0 0 0 5.207,-0.041a39.445,39.445 0 0 1 17.837,2.986q-0.159,0.7 -0.354,1.385c-2.634,-0.736 -5.456,-0.243 -8.143,0.433c-2.444,0.62 -5.206,1.405 -7.59,0.854c-3.92,-0.908 -4.593,-3.432 -14.782,-0.689c-6.13,1.65 -7.393,1.468 -11.791,0.217c-2.714,-0.77 -5.669,-1.559 -8.645,-0.724a26.44,26.44 0 0 1 0.549,-16.352a10.05,10.05 0 0 0 5.858,0.06a53.628,53.628 0 0 0 5.748,-2.172a27.194,27.194 0 0 1 12.19,-1.66a1.5,1.5 0 0 0 0.282,-2.987a30.153,30.153 0 0 0 -13.542,1.844a55.483,55.483 0 0 1 -5.433,2.071a7.355,7.355 0 0 1 -3.903,0.065a26.675,26.675 0 0 1 10.559,-11.182a12.924,12.924 0 0 0 7.875,1.499c1.133,-0.099 2.923,-0.287 3.685,0.647a1.5,1.5 0 1 0 2.324,-1.896c-1.533,-1.88 -3.865,-1.946 -6.267,-1.74a10.17,10.17 0 0 1 -3.97,-0.25a26.376,26.376 0 0 1 10.455,-1.753a1.5,1.5 0 0 0 0.105,-2.998a29.5,29.5 0 1 0 28.43,28.428zm-47.122,11.986c4.977,1.415 6.761,1.579 13.392,-0.206c9.26,-2.491 8.849,-0.321 13.327,0.714c3.02,0.698 6.035,-0.117 8.996,-0.867c2.068,-0.519 4.397,-1.006 6.43,-0.5a26.548,26.548 0 0 1 -4.641,7.438c-0.028,0.002 -0.056,0 -0.084,0.004a37.86,37.86 0 0 1 -13.858,-0.466a18.42,18.42 0 0 0 -8.984,-0.37c-5.424,0.82 -5.313,0.069 -10.695,-1.02a11.988,11.988 0 0 0 -7.28,0.43a26.503,26.503 0 0 1 -3.436,-5.93c2.236,-0.548 4.752,0.18 6.833,0.773zm-1.285,7.593a10.482,10.482 0 0 1 4.574,0.074c5.588,1.13 5.812,1.942 11.737,1.046a15.597,15.597 0 0 1 7.866,0.329a35.657,35.657 0 0 0 11.06,0.886a26.43,26.43 0 0 1 -35.237,-2.335z"/>
   <path id="svg_3" data-original="#000000" fill="#ffb703" d="m10.508,33a5.5,5.5 0 1 0 5.5,-5.5a5.506,5.506 0 0 0 -5.5,5.5zm8,0a2.5,2.5 0 1 1 -2.5,-2.5a2.503,2.503 0 0 1 2.5,2.5z"/>
   <path id="svg_4" data-original="#3e3ef4" fill="#ffb703" d="m59.49,19.353a5.785,5.785 0 0 1 -10.82,-2.983a7.78,7.78 0 0 0 -2.047,0.445c-2.985,0.908 -4.107,0.75 -7.03,-0.377a13.49,13.49 0 0 0 -2.068,-0.679a5.921,5.921 0 0 0 -4.962,1.335a15.4,15.4 0 0 0 2.578,7.538a21.676,21.676 0 0 1 11.652,-1.262c2.517,0.428 4.615,1.212 6.945,1.646a37.04,37.04 0 0 0 6.504,0.466a15.429,15.429 0 0 0 2.864,-6.026a18.583,18.583 0 0 1 -3.617,-0.103l0.001,0zm-18.815,-5.713c2.544,0.982 2.999,0.935 5.076,0.305a8.804,8.804 0 0 1 3.819,-0.544a5.784,5.784 0 0 1 10.673,3.022a19.035,19.035 0 0 0 3.243,0.005a15.255,15.255 0 0 0 -3.018,-9.608l-8.84,1.123a18.526,18.526 0 0 1 -7.098,-0.038a17.336,17.336 0 0 1 -6.48,-3.767a15.488,15.488 0 0 0 -5.316,9.327c2.97,-1.349 5.265,-0.859 7.94,0.175l0.001,0z"/>
   <path id="svg_5" data-original="#3e3ef4" fill="#ffb703" d="m45.284,5.001a16.158,16.158 0 0 0 5.966,-0.034l6.692,-0.85a15.462,15.462 0 0 0 -17.307,-1.748a13.203,13.203 0 0 0 4.65,2.631l-0.001,0.001z"/>
   <circle id="svg_6" data-original="#3e3ef4" fill="#ffb703" r="2.792" cy="16.5" cx="54.455"/>
   <path id="svg_7" data-original="#3e3ef4" fill="#ffb703" d="m53.19,27.965c-2.318,-0.43 -4.713,-1.266 -6.9,-1.637a18.624,18.624 0 0 0 -9.098,0.754a15.418,15.418 0 0 0 20.06,1.33a30.447,30.447 0 0 1 -4.063,-0.447l0.001,0z"/>
  </g>
 </g>
</svg>