<svg xmlns="http://www.w3.org/2000/svg" version="1.1" xmlns:xlink="http://www.w3.org/1999/xlink" width="512" height="512" x="0" y="0" viewBox="0 0 2.333 2.333" style="enable-background:new 0 0 512 512" xml:space="preserve" fill-rule="evenodd" class=""><g><path fill="#333333" d="M.545 1.61a.095.095 0 0 1 0-.189c.052 0 .093.042.093.095a.093.093 0 0 1-.093.094zm1.286.41H.501a.188.188 0 0 1-.188-.189V.501c0-.104.084-.188.188-.188h1.332c.104 0 .187.084.187.188v1.332a.189.189 0 0 1-.189.187zM.501.354A.146.146 0 0 0 .354.5v1.332c0 .081.065.148.147.148h1.332a.149.149 0 0 0 .148-.148V.5a.148.148 0 0 0-.148-.147H.5zm1.282.56H.89A.099.099 0 0 1 .79.817C.791.762.835.717.89.717h.894c.054 0 .099.045.099.099a.1.1 0 0 1-.1.099zM.89.76A.059.059 0 0 0 .83.817c0 .032.027.059.059.059h.894a.059.059 0 0 0 0-.117zM.545.91C.494.91.451.87.451.817S.492.723.545.723c.052 0 .093.042.093.094A.093.093 0 0 1 .545.91zm0-.147a.054.054 0 0 0-.054.054c0 .03.024.053.054.053S.598.847.598.817A.053.053 0 0 0 .545.763zm1.004.502H.89a.1.1 0 0 1-.098-.099c0-.054.044-.099.099-.099h.66c.053 0 .098.045.098.099a.099.099 0 0 1-.099.099zm-.66-.157a.059.059 0 0 0-.058.058c0 .032.027.058.059.058h.66c.031 0 .058-.026.058-.058s-.027-.058-.059-.058zm-.344.152a.095.095 0 0 1-.094-.094c0-.051.041-.093.094-.093.052 0 .093.042.093.093s-.041.094-.093.094zm0-.147a.054.054 0 0 0-.054.053c0 .03.024.054.054.054s.053-.023.053-.054a.053.053 0 0 0-.053-.053zm.804.502H.89c-.054 0-.098-.045-.098-.1s.044-.098.099-.098h.46c.055 0 .1.045.1.099s-.047.099-.1.099zm-.46-.157c-.031 0-.058.026-.058.058s.027.058.059.058h.46a.059.059 0 0 0 .059-.058.059.059 0 0 0-.058-.058zm-.344.004c-.029 0-.054.023-.054.054s.024.054.054.054.053-.024.053-.054-.024-.054-.053-.054z" opacity="0" data-original="#333333" class=""></path><g fill="#393f63"><path d="M.491.817c0 .03.024.053.054.053S.598.847.598.817A.053.053 0 0 0 .545.763a.054.054 0 0 0-.054.054zM.831.817c0 .032.027.059.059.059h.894a.059.059 0 0 0 0-.117H.89A.059.059 0 0 0 .83.817zM1.55 1.108H.89a.059.059 0 0 0-.059.058c0 .032.027.058.059.058h.66c.031 0 .058-.026.058-.058s-.027-.058-.059-.058zM.545 1.22c.03 0 .053-.023.053-.054a.053.053 0 0 0-.053-.053.054.054 0 0 0-.054.053c0 .03.024.054.054.054zM.545 1.462c-.029 0-.054.023-.054.054s.024.054.054.054.053-.024.053-.054-.024-.054-.053-.054zM.89 1.458c-.032 0-.059.026-.059.058s.027.058.059.058h.46a.059.059 0 0 0 .059-.058.059.059 0 0 0-.058-.058z" fill="#ffb703" opacity="1" data-original="#393f63" class=""></path></g><path fill="#1d1e40" d="M.89 1.615c-.055 0-.099-.045-.099-.1s.044-.098.099-.098h.46c.055 0 .1.045.1.099s-.047.099-.1.099H.89zM.545 1.61a.095.095 0 0 1 0-.189c.052 0 .093.042.093.095a.093.093 0 0 1-.093.094zm-.044.371h1.332a.149.149 0 0 0 .148-.148V.5a.148.148 0 0 0-.148-.147H.5A.146.146 0 0 0 .354.5v1.332c0 .081.065.148.147.148zm1.048-.716H.89a.1.1 0 0 1-.098-.099c0-.054.044-.099.099-.099h.66c.053 0 .098.045.098.099a.099.099 0 0 1-.099.099zm.234-.35H.89A.099.099 0 0 1 .79.816C.791.762.835.717.89.717h.894c.054 0 .099.045.099.099a.1.1 0 0 1-.1.099zm-1.145.251c0 .051-.041.094-.093.094S.451 1.22.451 1.166c0-.051.041-.093.094-.093.052 0 .093.042.093.093zM.545.91C.494.91.451.87.451.817S.492.723.545.723c.052 0 .093.042.093.094A.093.093 0 0 1 .545.91z" opacity="0" data-original="#dddaec" class=""></path></g></svg>