<svg width="64" height="64" xmlns="http://www.w3.org/2000/svg" xml:space="preserve" version="1.1">

 <g>
  <title>Layer 1</title>
  <g id="svg_1">
   <path id="svg_2" data-original="#3e3ef4" d="m32.092,42.464a1.504,1.504 0 0 0 -0.306,-0.44l-9.805,-9.805a1.492,1.492 0 0 0 -0.44,-0.305c-0.354,-0.16 -8.74,-3.843 -16.39,3.807c-4.596,4.597 -3.453,9.307 -2.35,13.862c0.723,2.979 1.47,6.059 0.569,9.197a1.501,1.501 0 0 0 1.855,1.855c3.14,-0.897 6.22,-0.153 9.197,0.568c5.384,1.306 9.555,1.959 13.862,-2.35c7.652,-7.65 3.968,-16.035 3.808,-16.389zm-8.01,12.188c-2.48,2.479 -5.547,1.996 -8.855,1.33c-1.874,-0.376 -3.642,-0.732 -5.039,-0.268a1.501,1.501 0 0 1 -1.897,-1.897c0.465,-1.396 0.11,-3.165 -0.268,-5.038c-0.591,-2.936 -1.26,-6.264 1.331,-8.856c3.435,-3.436 6.917,-3.296 8.687,-2.905a1.5,1.5 0 0 1 -0.645,2.93c-1.17,-0.256 -3.495,-0.329 -5.92,2.096c-1.358,1.358 -1.099,3.226 -0.512,6.143a19.926,19.926 0 0 1 0.547,4.307a20.874,20.874 0 0 1 4.308,0.547c2.915,0.587 4.785,0.846 6.142,-0.51c2.423,-2.425 2.354,-4.752 2.097,-5.922a1.5,1.5 0 1 1 2.93,-0.643c0.389,1.77 0.528,5.251 -2.905,8.686l-0.001,0z" fill="#ffb703"/>
   <path id="svg_3" data-original="#000000" fill="#ffb703" d="m62.16,54.503c-0.15,-0.016 -3.675,-0.455 -4.688,-4.845a1.502,1.502 0 0 0 -2.924,0c-1.01,4.375 -4.516,4.826 -4.686,4.845a1.501,1.501 0 0 0 -0.001,2.985c0.149,0.016 3.674,0.455 4.687,4.844a1.502,1.502 0 0 0 2.924,0c1.013,-4.39 4.538,-4.828 4.674,-4.843a1.502,1.502 0 0 0 0.013,-2.986l0.001,0zm-6.15,3.679a8.448,8.448 0 0 0 -2.121,-2.187a8.448,8.448 0 0 0 2.121,-2.186a8.448,8.448 0 0 0 2.121,2.186a8.448,8.448 0 0 0 -2.121,2.187zm-54.15,-48.694c0.15,0.016 3.675,0.455 4.689,4.844a1.501,1.501 0 0 0 2.922,0c1.014,-4.39 4.539,-4.828 4.675,-4.843a1.502,1.502 0 0 0 0.014,-2.986c-0.15,-0.016 -3.675,-0.455 -4.689,-4.845a1.501,1.501 0 0 0 -2.922,0c-1.009,4.369 -4.506,4.824 -4.686,4.844a1.502,1.502 0 0 0 -0.003,2.986zm6.15,-3.68a8.448,8.448 0 0 0 2.121,2.187a8.448,8.448 0 0 0 -2.121,2.187a8.448,8.448 0 0 0 -2.121,-2.187a8.448,8.448 0 0 0 2.121,-2.185l0,-0.002zm45.488,15.224a7.443,7.443 0 1 0 -10.525,0a7.452,7.452 0 0 0 10.525,0zm-8.404,-8.404a4.443,4.443 0 1 1 0,6.283a4.449,4.449 0 0 1 0,-6.283zm-11.907,2.782a1.5,1.5 0 1 0 -2.12,2.121l1.4,1.4a1.5,1.5 0 0 0 2.121,-2.12l-1.401,-1.401zm7.003,7.003a1.5,1.5 0 0 0 -2.12,2.121l1.401,1.402a1.5,1.5 0 1 0 2.121,-2.121l-1.402,-1.402zm7.005,7.004a1.5,1.5 0 0 0 -2.121,2.121l1.4,1.402a1.5,1.5 0 0 0 2.121,-2.121l-1.4,-1.402z"/>
   <path id="svg_4" data-original="#000000" fill="#ffb703" d="m47.781,40.448a23.484,23.484 0 0 0 5.04,-3.403c12.456,-11.074 10.941,-27.907 10.179,-32.804a3.921,3.921 0 0 0 -3.238,-3.237c-4.896,-0.76 -21.729,-2.275 -32.802,10.18a23.46,23.46 0 0 0 -3.4,5.042c-3.04,-0.962 -14.5,-3.373 -22.857,11.413a1.502,1.502 0 0 0 1.926,2.104c1.935,-0.875 7.59,-2.73 10.455,-0.818a1.5,1.5 0 0 0 1.664,-2.496c-2.66,-1.773 -6.327,-1.469 -9.148,-0.81c6.713,-8.822 14.358,-7.388 16.763,-6.644a26.418,26.418 0 0 0 -1.662,8.602a1.5,1.5 0 0 0 1.5,1.48l0.017,-0.001a1.5,1.5 0 0 0 1.483,-1.516a20.018,20.018 0 0 1 0.307,-3.058l15.516,15.515a19.997,19.997 0 0 1 -3.052,0.306a0.21,0.21 0 0 1 -0.026,0a1.5,1.5 0 0 0 -0.019,3a26.935,26.935 0 0 0 8.604,-1.658c0.743,2.412 2.17,10.052 -6.646,16.76c0.66,-2.822 0.964,-6.488 -0.81,-9.148a1.5,1.5 0 1 0 -2.496,1.664c1.911,2.866 0.058,8.519 -0.818,10.455a1.502,1.502 0 0 0 2.104,1.925c14.78,-8.353 12.378,-19.808 11.415,-22.853l0.001,0zm-22.945,-19.382a21.53,21.53 0 0 1 4.367,-7.887c10.066,-11.322 25.583,-9.913 30.097,-9.21a0.927,0.927 0 0 1 0.735,0.734c0.703,4.517 2.114,20.034 -9.209,30.1a21.543,21.543 0 0 1 -7.887,4.367l-18.103,-18.104z"/>
  </g>
 </g>
</svg>