<svg xmlns="http://www.w3.org/2000/svg" version="1.1" xmlns:xlink="http://www.w3.org/1999/xlink" width="512" height="512" x="0" y="0" viewBox="0 0 64 64" style="enable-background:new 0 0 512 512" xml:space="preserve" class=""><g><path fill="#80ddf2" d="M32.092 42.464a1.504 1.504 0 0 0-.306-.44l-9.805-9.805a1.492 1.492 0 0 0-.44-.305c-.354-.16-8.74-3.843-16.39 3.807-4.596 4.597-3.453 9.307-2.35 13.862.723 2.979 1.47 6.059.569 9.197a1.501 1.501 0 0 0 1.855 1.855c3.14-.897 6.22-.153 9.197.568 5.384 1.306 9.555 1.959 13.862-2.35 7.652-7.65 3.968-16.035 3.808-16.389zm-8.01 12.188c-2.48 2.479-5.547 1.996-8.855 1.33-1.874-.376-3.642-.732-5.039-.268a1.501 1.501 0 0 1-1.897-1.897c.465-1.396.11-3.165-.268-5.038-.591-2.936-1.26-6.264 1.331-8.856 3.435-3.436 6.917-3.296 8.687-2.905a1.5 1.5 0 0 1-.645 2.93c-1.17-.256-3.495-.329-5.92 2.096-1.358 1.358-1.099 3.226-.512 6.143a19.926 19.926 0 0 1 .547 4.307 20.874 20.874 0 0 1 4.308.547c2.915.587 4.785.846 6.142-.51 2.423-2.425 2.354-4.752 2.097-5.922a1.5 1.5 0 1 1 2.93-.643c.389 1.77.528 5.251-2.905 8.686z" opacity="1" data-original="#3e3ef4"></path><path d="M62.16 54.503c-.15-.016-3.675-.455-4.688-4.845a1.502 1.502 0 0 0-2.924 0c-1.01 4.375-4.516 4.826-4.686 4.845a1.501 1.501 0 0 0-.001 2.985c.149.016 3.674.455 4.687 4.844a1.502 1.502 0 0 0 2.924 0c1.013-4.39 4.538-4.828 4.674-4.843a1.502 1.502 0 0 0 .013-2.986zm-6.15 3.679a8.448 8.448 0 0 0-2.121-2.187 8.448 8.448 0 0 0 2.121-2.186 8.448 8.448 0 0 0 2.121 2.186 8.448 8.448 0 0 0-2.121 2.187zM1.86 9.488c.15.016 3.675.455 4.689 4.844a1.501 1.501 0 0 0 2.922 0c1.014-4.39 4.539-4.828 4.675-4.843a1.502 1.502 0 0 0 .014-2.986c-.15-.016-3.675-.455-4.689-4.845a1.501 1.501 0 0 0-2.922 0C5.54 6.027 2.043 6.482 1.863 6.502a1.502 1.502 0 0 0-.003 2.986zm6.15-3.68a8.448 8.448 0 0 0 2.121 2.187 8.448 8.448 0 0 0-2.121 2.187 8.448 8.448 0 0 0-2.121-2.187A8.448 8.448 0 0 0 8.01 5.81zM53.498 21.032a7.443 7.443 0 1 0-10.525 0 7.452 7.452 0 0 0 10.525 0zm-8.404-8.404a4.443 4.443 0 1 1 0 6.283 4.449 4.449 0 0 1 0-6.283zM33.187 15.41a1.5 1.5 0 1 0-2.12 2.121l1.4 1.4a1.5 1.5 0 0 0 2.121-2.12zM40.19 22.413a1.5 1.5 0 0 0-2.12 2.121l1.401 1.402a1.5 1.5 0 1 0 2.121-2.121zM47.195 29.417a1.5 1.5 0 0 0-2.121 2.121l1.4 1.402a1.5 1.5 0 0 0 2.121-2.121z" fill="#ffb703" opacity="1" data-original="#000000" class=""></path><path d="M47.781 40.448a23.484 23.484 0 0 0 5.04-3.403C65.277 25.971 63.762 9.138 63 4.241a3.921 3.921 0 0 0-3.238-3.237c-4.896-.76-21.729-2.275-32.802 10.18a23.46 23.46 0 0 0-3.4 5.042C20.52 15.264 9.06 12.853.703 27.639a1.502 1.502 0 0 0 1.926 2.104c1.935-.875 7.59-2.73 10.455-.818a1.5 1.5 0 0 0 1.664-2.496c-2.66-1.773-6.327-1.469-9.148-.81 6.713-8.822 14.358-7.388 16.763-6.644a26.418 26.418 0 0 0-1.662 8.602 1.5 1.5 0 0 0 1.5 1.48l.017-.001a1.5 1.5 0 0 0 1.483-1.516 20.018 20.018 0 0 1 .307-3.058l15.516 15.515a19.997 19.997 0 0 1-3.052.306.21.21 0 0 1-.026 0 1.5 1.5 0 0 0-.019 3 26.935 26.935 0 0 0 8.604-1.658c.743 2.412 2.17 10.052-6.646 16.76.66-2.822.964-6.488-.81-9.148a1.5 1.5 0 1 0-2.496 1.664c1.911 2.866.058 8.519-.818 10.455a1.502 1.502 0 0 0 2.104 1.925c14.78-8.353 12.378-19.808 11.415-22.853zM24.836 21.066a21.53 21.53 0 0 1 4.367-7.887C39.269 1.857 54.786 3.266 59.3 3.969a.927.927 0 0 1 .735.734c.703 4.517 2.114 20.034-9.209 30.1a21.543 21.543 0 0 1-7.887 4.367z" fill="#ffb703" opacity="1" data-original="#000000" class=""></path></g></svg>