<svg width="64" height="64" xmlns="http://www.w3.org/2000/svg" xml:space="preserve" version="1.1">

 <g>
  <title>Layer 1</title>
  <g id="svg_1">
   <path id="svg_2" data-original="#3e3ef4" d="m47.92,18.822l-8.516,-6.625a7.226,7.226 0 0 0 0.096,-1.107a8.08,8.08 0 0 0 -1.516,-4.73l-3.144,-4.391l-0.001,0a3.49,3.49 0 0 0 -5.679,0l-3.143,4.391a8.074,8.074 0 0 0 -1.517,4.73a7.326,7.326 0 0 0 0.094,1.109l-8.515,6.623a1.5,1.5 0 0 0 -0.42,1.854l1,2a1.5,1.5 0 0 0 1.635,0.8l9.056,-1.811l1.531,5.132l-5.355,1.785a1.5,1.5 0 0 0 0.474,2.923l6.285,0l0.277,0.929a1.501,1.501 0 0 0 2.875,0l0.277,-0.929l6.286,0a1.5,1.5 0 0 0 0.475,-2.923l-5.357,-1.785l1.53,-5.133l9.058,1.812a1.5,1.5 0 0 0 1.636,-0.8l1,-2a1.5,1.5 0 0 0 -0.421,-1.854l-0.001,0zm-11.765,-8.859a1.5,1.5 0 0 1 -2.112,0.197a2.759,2.759 0 0 0 -4.084,0a1.5,1.5 0 1 1 -1.916,-2.309a5.723,5.723 0 0 1 7.916,0a1.5,1.5 0 0 1 0.196,2.112z" fill="#ffb703"/>
   <path id="svg_3" data-original="#000000" fill="#ffb703" d="m60,15.505l-5.5,0l0,-6.5a3.504,3.504 0 0 0 -3.5,-3.5l-8,0a1.5,1.5 0 1 0 0,3l8,0a0.501,0.501 0 0 1 0.5,0.5l0,40a0.501,0.501 0 0 1 -0.5,0.5l-17.5,0l0,-11.5a1.5,1.5 0 0 0 -3,0l0,11.5l-17.5,0a0.5,0.5 0 0 1 -0.5,-0.5l0,-40a0.5,0.5 0 0 1 0.5,-0.5l8,0a1.5,1.5 0 0 0 0,-3l-8,0a3.504,3.504 0 0 0 -3.5,3.5l0,6.5l-5.5,0a3.504,3.504 0 0 0 -3.5,3.5l0,37a3.504,3.504 0 0 0 3.5,3.5l22.708,0a5.505,5.505 0 0 0 10.584,0l22.708,0a3.504,3.504 0 0 0 3.5,-3.5l0,-37a3.504,3.504 0 0 0 -3.5,-3.5zm0.5,40.5a0.501,0.501 0 0 1 -0.5,0.5l-24,0a1.5,1.5 0 0 0 -1.5,1.5c0,3.31 -5,3.303 -5,0a1.5,1.5 0 0 0 -1.5,-1.5l-24,0a0.5,0.5 0 0 1 -0.5,-0.5l0,-37a0.5,0.5 0 0 1 0.5,-0.5l5.5,0l0,30.5a3.504,3.504 0 0 0 3.5,3.5l38,0a3.504,3.504 0 0 0 3.5,-3.5l0,-30.5l5.5,0a0.501,0.501 0 0 1 0.5,0.5l0,37z"/>
   <path id="svg_4" data-original="#000000" fill="#ffb703" d="m38,38.505l9,0a1.5,1.5 0 0 0 0,-3l-9,0a1.5,1.5 0 0 0 0,3zm0,7l9,0a1.5,1.5 0 0 0 0,-3l-9,0a1.5,1.5 0 0 0 0,3zm-22.5,-8.5a1.5,1.5 0 0 0 1.5,1.5l9,0a1.5,1.5 0 0 0 0,-3l-9,0a1.5,1.5 0 0 0 -1.5,1.5zm10.5,5.5l-9,0a1.5,1.5 0 0 0 0,3l9,0a1.5,1.5 0 0 0 0,-3z"/>
  </g>
 </g>
</svg>