<svg xmlns="http://www.w3.org/2000/svg" version="1.1" xmlns:xlink="http://www.w3.org/1999/xlink" width="512" height="512" x="0" y="0" viewBox="0 0 64 64" style="enable-background:new 0 0 512 512" xml:space="preserve" class=""><g><circle cx="32" cy="12" r="2.5" style="" fill="#80ddf2" data-original="#3e3ef4" class="" opacity="1"></circle><path d="M27.5 24.712V29a4.5 4.5 0 0 0 9 0v-4.288a13.248 13.248 0 0 1-9 0ZM47 21.5h-3.326l-2.411-2.713a11.369 11.369 0 0 0 1.556-10.649l-1.427 1.249a1.5 1.5 0 0 1-1.976-2.258L41.4 5.395 43.563 3.5H47a1.5 1.5 0 0 0 0-3h-4a1.5 1.5 0 0 0-.988.371l-2.655 2.323a11.428 11.428 0 0 0-14.727-.011L21.988.871A1.5 1.5 0 0 0 21 .5h-4a1.5 1.5 0 0 0 0 3h3.437l2.165 1.894a11.37 11.37 0 0 0-1.378 10.58L18.98 18.5H17a1.5 1.5 0 0 0 0 3h2.653a1.5 1.5 0 0 0 1.12-.503l3.55-3.994a1.5 1.5 0 0 1 2.242 1.994l-1.75 1.968a11.45 11.45 0 0 0 14.37 0l2.694 3.032A1.5 1.5 0 0 0 43 24.5h4a1.5 1.5 0 0 0 0-3Zm-15-4a5.5 5.5 0 1 1 5.5-5.5 5.506 5.506 0 0 1-5.5 5.5Z" style="" fill="#80ddf2" data-original="#3e3ef4" class="" opacity="1"></path><path d="M60 7.5H48a1.5 1.5 0 0 0 0 3h12a.5.5 0 0 1 .5.5v36a.5.5 0 0 1-.5.5H4a.5.5 0 0 1-.5-.5V11a.5.5 0 0 1 .5-.5h12a1.5 1.5 0 0 0 0-3H4A3.504 3.504 0 0 0 .5 11v36A3.504 3.504 0 0 0 4 50.5h19.3c-1.05 4.346-5.508 4.854-5.61 4.902a2.503 2.503 0 0 0-2.19 2.48V61a2.503 2.503 0 0 0 2.5 2.5h28a2.503 2.503 0 0 0 2.5-2.5v-3.117a2.503 2.503 0 0 0-2.188-2.48 6.476 6.476 0 0 1-5.613-4.903H60a3.504 3.504 0 0 0 3.5-3.5V11A3.504 3.504 0 0 0 60 7.5ZM45.5 58.32v2.18h-27v-2.18a9.451 9.451 0 0 0 7.88-7.82h11.24a9.45 9.45 0 0 0 7.88 7.82Z" fill="#ffb703" opacity="1" data-original="#000000" class=""></path><path d="M7.5 31v8a3.504 3.504 0 0 0 3.5 3.5h42a3.504 3.504 0 0 0 3.5-3.5v-8a3.504 3.504 0 0 0-3.5-3.5H41a1.5 1.5 0 0 0 0 3h12a.5.5 0 0 1 .5.5v8a.5.5 0 0 1-.5.5H11a.5.5 0 0 1-.5-.5v-8a.5.5 0 0 1 .5-.5h12a1.5 1.5 0 0 0 0-3H11A3.504 3.504 0 0 0 7.5 31Z" fill="#ffb703" opacity="1" data-original="#000000" class=""></path><circle cx="54.5" cy="14.5" r="2" fill="#ffb703" opacity="1" data-original="#000000" class=""></circle><circle cx="54.5" cy="23" r="2" fill="#ffb703" opacity="1" data-original="#000000" class=""></circle><circle cx="9.5" cy="14.5" r="2" fill="#ffb703" opacity="1" data-original="#000000" class=""></circle><circle cx="9.5" cy="23" r="2" fill="#ffb703" opacity="1" data-original="#000000" class=""></circle></g></svg>