<svg width="64" height="64" xmlns="http://www.w3.org/2000/svg" xml:space="preserve" version="1.1">

 <g>
  <title>Layer 1</title>
  <g id="svg_1">
   <circle id="svg_2" data-original="#3e3ef4" fill="#ffb703" r="2.5" cy="12" cx="32"/>
   <path id="svg_3" data-original="#3e3ef4" fill="#ffb703" d="m27.5,24.712l0,4.288a4.5,4.5 0 0 0 9,0l0,-4.288a13.248,13.248 0 0 1 -9,0zm19.5,-3.212l-3.326,0l-2.411,-2.713a11.369,11.369 0 0 0 1.556,-10.649l-1.427,1.249a1.5,1.5 0 0 1 -1.976,-2.258l1.984,-1.734l2.163,-1.895l3.437,0a1.5,1.5 0 0 0 0,-3l-4,0a1.5,1.5 0 0 0 -0.988,0.371l-2.655,2.323a11.428,11.428 0 0 0 -14.727,-0.011l-2.642,-2.312a1.5,1.5 0 0 0 -0.988,-0.371l-4,0a1.5,1.5 0 0 0 0,3l3.437,0l2.165,1.894a11.37,11.37 0 0 0 -1.378,10.58l-2.244,2.526l-1.98,0a1.5,1.5 0 0 0 0,3l2.653,0a1.5,1.5 0 0 0 1.12,-0.503l3.55,-3.994a1.5,1.5 0 0 1 2.242,1.994l-1.75,1.968a11.45,11.45 0 0 0 14.37,0l2.694,3.032a1.5,1.5 0 0 0 1.121,0.503l4,0a1.5,1.5 0 0 0 0,-3zm-15,-4a5.5,5.5 0 1 1 5.5,-5.5a5.506,5.506 0 0 1 -5.5,5.5z"/>
   <path id="svg_4" data-original="#000000" fill="#ffb703" d="m60,7.5l-12,0a1.5,1.5 0 0 0 0,3l12,0a0.5,0.5 0 0 1 0.5,0.5l0,36a0.5,0.5 0 0 1 -0.5,0.5l-56,0a0.5,0.5 0 0 1 -0.5,-0.5l0,-36a0.5,0.5 0 0 1 0.5,-0.5l12,0a1.5,1.5 0 0 0 0,-3l-12,0a3.504,3.504 0 0 0 -3.5,3.5l0,36a3.504,3.504 0 0 0 3.5,3.5l19.3,0c-1.05,4.346 -5.508,4.854 -5.61,4.902a2.503,2.503 0 0 0 -2.19,2.48l0,3.118a2.503,2.503 0 0 0 2.5,2.5l28,0a2.503,2.503 0 0 0 2.5,-2.5l0,-3.117a2.503,2.503 0 0 0 -2.188,-2.48a6.476,6.476 0 0 1 -5.613,-4.903l19.301,0a3.504,3.504 0 0 0 3.5,-3.5l0,-36a3.504,3.504 0 0 0 -3.5,-3.5zm-14.5,50.82l0,2.18l-27,0l0,-2.18a9.451,9.451 0 0 0 7.88,-7.82l11.24,0a9.45,9.45 0 0 0 7.88,7.82z"/>
   <path id="svg_5" data-original="#000000" fill="#ffb703" d="m7.5,31l0,8a3.504,3.504 0 0 0 3.5,3.5l42,0a3.504,3.504 0 0 0 3.5,-3.5l0,-8a3.504,3.504 0 0 0 -3.5,-3.5l-12,0a1.5,1.5 0 0 0 0,3l12,0a0.5,0.5 0 0 1 0.5,0.5l0,8a0.5,0.5 0 0 1 -0.5,0.5l-42,0a0.5,0.5 0 0 1 -0.5,-0.5l0,-8a0.5,0.5 0 0 1 0.5,-0.5l12,0a1.5,1.5 0 0 0 0,-3l-12,0a3.504,3.504 0 0 0 -3.5,3.5z"/>
   <circle id="svg_6" data-original="#000000" fill="#ffb703" r="2" cy="14.5" cx="54.5"/>
   <circle id="svg_7" data-original="#000000" fill="#ffb703" r="2" cy="23" cx="54.5"/>
   <circle id="svg_8" data-original="#000000" fill="#ffb703" r="2" cy="14.5" cx="9.5"/>
   <circle id="svg_9" data-original="#000000" fill="#ffb703" r="2" cy="23" cx="9.5"/>
  </g>
 </g>
</svg>