<svg xmlns="http://www.w3.org/2000/svg" version="1.1" xmlns:xlink="http://www.w3.org/1999/xlink" width="512" height="512" x="0" y="0" viewBox="0 0 512 512" style="enable-background:new 0 0 512 512" xml:space="preserve" class=""><g><path fill="#ffb703" d="M218.949 474.434c-50.088 50.088-131.296 50.088-181.384 0s-50.088-131.296 0-181.384S512 0 512 0 269.037 424.347 218.949 474.434z" opacity="1" data-original="#ffb300" class=""></path><path fill="#ffa000" d="M484.066 16.075c-60.497 99.694-253.906 416.243-296.022 458.359-21.106 21.106-47.738 33.317-75.239 36.636 37.762 4.557 77.163-7.654 106.144-36.636C269.037 424.347 512 0 512 0s-10.322 5.91-27.934 16.075z" opacity="1" data-original="#ffa000" class=""></path><path fill="#80ddf2" d="m219.344 342.785-34.376-44.471a17.095 17.095 0 0 0-10.511-6.372l-60.889-10.907a17.093 17.093 0 0 0-12.985 2.941L54.38 317.152a17.094 17.094 0 0 0-6.355 8.815l-13.873 44.662a17.093 17.093 0 0 0-.257 9.226l11.345 45.274a17.098 17.098 0 0 0 6.039 9.302l35.775 28.03a17.093 17.093 0 0 0 9.364 3.598l59.506 4.115a17.1 17.1 0 0 0 12.205-3.99l40.948-34.556a17.096 17.096 0 0 0 5.95-11.046l7.768-65.322c.528-4.45-.711-8.93-3.451-12.475z" opacity="1" data-original="#a9b3c9" class=""></path><path fill="#8e99ad" d="m219.344 342.785-34.376-44.471a17.095 17.095 0 0 0-10.511-6.372l-60.889-10.907a17.093 17.093 0 0 0-12.985 2.941l-.3.216 43.269 7.751a17.09 17.09 0 0 1 10.511 6.372l34.376 44.471a17.097 17.097 0 0 1 3.45 12.474l-7.768 65.322a17.1 17.1 0 0 1-5.95 11.046l-40.948 34.556a17.079 17.079 0 0 1-3.839 2.431l22.54 1.559a17.1 17.1 0 0 0 12.205-3.99l40.948-34.556a17.096 17.096 0 0 0 5.95-11.046l7.768-65.322c.528-4.45-.711-8.93-3.451-12.475z" opacity="1" data-original="#8e99ad" class=""></path><g fill="#7d889e"><path d="m174.019 357.823-26.367-46.3a7.501 7.501 0 0 0-13.035 7.423l25.214 44.275-4.37 51.615-32.223 24.203a7.5 7.5 0 0 0-1.492 10.501c2.494 3.322 7.199 3.972 10.501 1.493l34.909-26.221a7.503 7.503 0 0 0 2.969-5.364l4.85-57.282a7.497 7.497 0 0 0-.956-4.343zM91.288 334.707a7.504 7.504 0 0 0-8.976 5.651l-5.151 22.664a7.505 7.505 0 0 0-.107 2.754l5.151 35.025a7.5 7.5 0 0 0 14.841-2.184l-4.948-33.638 4.841-21.298a7.498 7.498 0 0 0-5.651-8.974z" fill="#7d889e" opacity="1" data-original="#7d889e" class=""></path></g></g></svg>