<svg xmlns="http://www.w3.org/2000/svg" version="1.1" xmlns:xlink="http://www.w3.org/1999/xlink" width="512" height="512" x="0" y="0" viewBox="0 0 32 32" style="enable-background:new 0 0 512 512" xml:space="preserve" fill-rule="evenodd" class=""><g><circle cx="16" cy="16" r="10.286" fill="#ffb703" transform="matrix(.778 0 0 .778 3.556 3.556)" opacity="1" data-original="#ffa008" class=""></circle><path fill="#ffb703" d="M15 27a1 1 0 0 1 2 0v3a1 1 0 0 1-2 0zM5 15a1 1 0 1 1 0 2.001H2A1 1 0 1 1 2 15zm3.929-7.485a1 1 0 1 1-1.414 1.413L5.393 6.807a1 1 0 1 1 1.415-1.413zm15.556 1.413a1 1 0 0 1-1.414-1.413l2.121-2.121a1 1 0 1 1 1.415 1.413zM15 2.001c0-.552.448-1.002 1-1.002s1 .45 1 1.002v3a1 1 0 0 1-2 0zM30 15a1 1 0 1 1 0 2.001h-3A1 1 0 1 1 27 15zm-3.393 10.191a1.002 1.002 0 0 1-1.415 1.416l-2.121-2.121a1 1 0 0 1 1.414-1.416zM6.808 26.607a1.002 1.002 0 0 1-1.415-1.416l2.122-2.121a1 1 0 0 1 1.414 1.416z" opacity="1" data-original="#ff730a" class=""></path></g></svg>